<mxfile host="app.diagrams.net" agent="Mozilla/5.0 (Macintosh; Intel Mac OS X 10_15_7) AppleWebKit/537.36 (KHTML, like Gecko) Chrome/131.0.0.0 Safari/537.36" version="26.0.11">
  <diagram name="ページ1" id="_vRMY4wKFBXDXoaJsUKD">
    <mxGraphModel dx="2080" dy="833" grid="1" gridSize="10" guides="1" tooltips="1" connect="1" arrows="1" fold="1" page="1" pageScale="1" pageWidth="827" pageHeight="1169" math="0" shadow="0">
      <root>
        <mxCell id="0" />
        <mxCell id="1" parent="0" />
        <mxCell id="zwYwfQuwH_KNPQyuN6vb-121" value="" style="group;fontStyle=1;fontSize=13;" vertex="1" connectable="0" parent="1">
          <mxGeometry x="-120" y="60" width="110" height="90" as="geometry" />
        </mxCell>
        <mxCell id="zwYwfQuwH_KNPQyuN6vb-122" value="" style="shape=internalStorage;whiteSpace=wrap;html=1;dx=40;dy=30;rounded=1;arcSize=8;strokeWidth=2;fontStyle=1;fontSize=13;" vertex="1" parent="zwYwfQuwH_KNPQyuN6vb-121">
          <mxGeometry width="110" height="90" as="geometry" />
        </mxCell>
        <mxCell id="zwYwfQuwH_KNPQyuN6vb-123" value="宛先" style="text;strokeColor=none;fillColor=none;spacingLeft=4;spacingRight=4;overflow=hidden;rotatable=0;points=[[0,0.5],[1,0.5]];portConstraint=eastwest;fontSize=13;whiteSpace=wrap;html=1;fontStyle=1" vertex="1" parent="zwYwfQuwH_KNPQyuN6vb-121">
          <mxGeometry width="40" height="30" as="geometry" />
        </mxCell>
        <mxCell id="zwYwfQuwH_KNPQyuN6vb-124" value="動作" style="text;strokeColor=none;fillColor=none;spacingLeft=4;spacingRight=4;overflow=hidden;rotatable=0;points=[[0,0.5],[1,0.5]];portConstraint=eastwest;fontSize=13;whiteSpace=wrap;html=1;fontStyle=1;align=center;" vertex="1" parent="zwYwfQuwH_KNPQyuN6vb-121">
          <mxGeometry x="50" width="50" height="30" as="geometry" />
        </mxCell>
        <mxCell id="zwYwfQuwH_KNPQyuN6vb-125" value="Item" style="text;strokeColor=none;fillColor=none;spacingLeft=4;spacingRight=4;overflow=hidden;rotatable=0;points=[[0,0.5],[1,0.5]];portConstraint=eastwest;fontSize=13;whiteSpace=wrap;html=1;fontStyle=1" vertex="1" parent="zwYwfQuwH_KNPQyuN6vb-121">
          <mxGeometry y="30" width="40" height="30" as="geometry" />
        </mxCell>
        <mxCell id="zwYwfQuwH_KNPQyuN6vb-126" value="Item" style="text;strokeColor=none;fillColor=none;spacingLeft=4;spacingRight=4;overflow=hidden;rotatable=0;points=[[0,0.5],[1,0.5]];portConstraint=eastwest;fontSize=13;whiteSpace=wrap;html=1;fontStyle=1" vertex="1" parent="zwYwfQuwH_KNPQyuN6vb-121">
          <mxGeometry y="60" width="40" height="30" as="geometry" />
        </mxCell>
        <mxCell id="zwYwfQuwH_KNPQyuN6vb-127" value="C" style="text;strokeColor=none;fillColor=none;spacingLeft=4;spacingRight=4;overflow=hidden;rotatable=0;points=[[0,0.5],[1,0.5]];portConstraint=eastwest;fontSize=13;whiteSpace=wrap;html=1;align=center;fontStyle=1" vertex="1" parent="zwYwfQuwH_KNPQyuN6vb-121">
          <mxGeometry x="40" y="30" width="70" height="30" as="geometry" />
        </mxCell>
        <mxCell id="zwYwfQuwH_KNPQyuN6vb-128" value="送信先" style="text;strokeColor=none;fillColor=none;spacingLeft=4;spacingRight=4;overflow=hidden;rotatable=0;points=[[0,0.5],[1,0.5]];portConstraint=eastwest;fontSize=13;whiteSpace=wrap;html=1;fontStyle=1" vertex="1" parent="zwYwfQuwH_KNPQyuN6vb-121">
          <mxGeometry x="50" y="60" width="50" height="30" as="geometry" />
        </mxCell>
        <mxCell id="zwYwfQuwH_KNPQyuN6vb-217" value="" style="html=1;shadow=0;dashed=0;align=center;verticalAlign=middle;shape=mxgraph.arrows2.arrow;dy=0.69;dx=24;notch=0;fontSize=16;strokeWidth=2;" vertex="1" parent="1">
          <mxGeometry x="140" y="10" width="80" height="35" as="geometry" />
        </mxCell>
        <mxCell id="zwYwfQuwH_KNPQyuN6vb-254" value="" style="group;align=center;" vertex="1" connectable="0" parent="1">
          <mxGeometry x="10" y="30" width="110" height="120" as="geometry" />
        </mxCell>
        <mxCell id="zwYwfQuwH_KNPQyuN6vb-255" value="" style="shape=internalStorage;whiteSpace=wrap;html=1;dx=40;dy=30;rounded=1;arcSize=8;strokeWidth=2;fontStyle=1;fontSize=13;align=center;" vertex="1" parent="zwYwfQuwH_KNPQyuN6vb-254">
          <mxGeometry width="110" height="120" as="geometry" />
        </mxCell>
        <mxCell id="zwYwfQuwH_KNPQyuN6vb-256" value="宛先" style="text;strokeColor=none;fillColor=none;spacingLeft=4;spacingRight=4;overflow=hidden;rotatable=0;points=[[0,0.5],[1,0.5]];portConstraint=eastwest;fontSize=13;whiteSpace=wrap;html=1;fontStyle=1;align=center;" vertex="1" parent="zwYwfQuwH_KNPQyuN6vb-254">
          <mxGeometry width="40" height="30" as="geometry" />
        </mxCell>
        <mxCell id="zwYwfQuwH_KNPQyuN6vb-257" value="動作" style="text;strokeColor=none;fillColor=none;spacingLeft=4;spacingRight=4;overflow=hidden;rotatable=0;points=[[0,0.5],[1,0.5]];portConstraint=eastwest;fontSize=13;whiteSpace=wrap;html=1;fontStyle=1;align=center;" vertex="1" parent="zwYwfQuwH_KNPQyuN6vb-254">
          <mxGeometry x="50" width="50" height="30" as="geometry" />
        </mxCell>
        <mxCell id="zwYwfQuwH_KNPQyuN6vb-258" value="Item" style="text;strokeColor=none;fillColor=none;spacingLeft=4;spacingRight=4;overflow=hidden;rotatable=0;points=[[0,0.5],[1,0.5]];portConstraint=eastwest;fontSize=13;whiteSpace=wrap;html=1;fontStyle=1;align=center;" vertex="1" parent="zwYwfQuwH_KNPQyuN6vb-254">
          <mxGeometry y="30" width="40" height="30" as="geometry" />
        </mxCell>
        <mxCell id="zwYwfQuwH_KNPQyuN6vb-259" value="Item" style="text;strokeColor=none;fillColor=none;spacingLeft=4;spacingRight=4;overflow=hidden;rotatable=0;points=[[0,0.5],[1,0.5]];portConstraint=eastwest;fontSize=13;whiteSpace=wrap;html=1;fontStyle=1;align=center;" vertex="1" parent="zwYwfQuwH_KNPQyuN6vb-254">
          <mxGeometry y="60" width="40" height="30" as="geometry" />
        </mxCell>
        <mxCell id="zwYwfQuwH_KNPQyuN6vb-260" value="受け取る" style="text;strokeColor=none;fillColor=none;spacingLeft=4;spacingRight=4;overflow=hidden;rotatable=0;points=[[0,0.5],[1,0.5]];portConstraint=eastwest;fontSize=13;whiteSpace=wrap;html=1;align=center;fontStyle=1" vertex="1" parent="zwYwfQuwH_KNPQyuN6vb-254">
          <mxGeometry x="40" y="30" width="70" height="30" as="geometry" />
        </mxCell>
        <mxCell id="zwYwfQuwH_KNPQyuN6vb-261" value="送信先" style="text;strokeColor=none;fillColor=none;spacingLeft=4;spacingRight=4;overflow=hidden;rotatable=0;points=[[0,0.5],[1,0.5]];portConstraint=eastwest;fontSize=13;whiteSpace=wrap;html=1;fontStyle=1;align=center;" vertex="1" parent="zwYwfQuwH_KNPQyuN6vb-254">
          <mxGeometry x="50" y="60" width="50" height="30" as="geometry" />
        </mxCell>
        <mxCell id="zwYwfQuwH_KNPQyuN6vb-262" value="送信先" style="text;strokeColor=none;fillColor=none;spacingLeft=4;spacingRight=4;overflow=hidden;rotatable=0;points=[[0,0.5],[1,0.5]];portConstraint=eastwest;fontSize=13;whiteSpace=wrap;html=1;fontStyle=1;align=center;" vertex="1" parent="zwYwfQuwH_KNPQyuN6vb-254">
          <mxGeometry x="50" y="90" width="50" height="30" as="geometry" />
        </mxCell>
        <mxCell id="zwYwfQuwH_KNPQyuN6vb-263" value="Item" style="text;strokeColor=none;fillColor=none;spacingLeft=4;spacingRight=4;overflow=hidden;rotatable=0;points=[[0,0.5],[1,0.5]];portConstraint=eastwest;fontSize=13;whiteSpace=wrap;html=1;fontStyle=1;align=center;" vertex="1" parent="zwYwfQuwH_KNPQyuN6vb-254">
          <mxGeometry y="90" width="40" height="30" as="geometry" />
        </mxCell>
        <mxCell id="zwYwfQuwH_KNPQyuN6vb-273" value="" style="group" vertex="1" connectable="0" parent="1">
          <mxGeometry x="-270" y="60" width="110" height="60" as="geometry" />
        </mxCell>
        <mxCell id="zwYwfQuwH_KNPQyuN6vb-274" value="" style="shape=internalStorage;whiteSpace=wrap;html=1;dx=40;dy=30;rounded=1;arcSize=8;strokeWidth=2;fontStyle=1;fontSize=13;container=0;" vertex="1" parent="zwYwfQuwH_KNPQyuN6vb-273">
          <mxGeometry width="110" height="60" as="geometry" />
        </mxCell>
        <mxCell id="zwYwfQuwH_KNPQyuN6vb-275" value="宛先" style="text;strokeColor=none;fillColor=none;spacingLeft=4;spacingRight=4;overflow=hidden;rotatable=0;points=[[0,0.5],[1,0.5]];portConstraint=eastwest;fontSize=13;whiteSpace=wrap;html=1;fontStyle=1;container=0;" vertex="1" parent="zwYwfQuwH_KNPQyuN6vb-273">
          <mxGeometry width="40" height="30" as="geometry" />
        </mxCell>
        <mxCell id="zwYwfQuwH_KNPQyuN6vb-276" value="動作" style="text;strokeColor=none;fillColor=none;spacingLeft=4;spacingRight=4;overflow=hidden;rotatable=0;points=[[0,0.5],[1,0.5]];portConstraint=eastwest;fontSize=13;whiteSpace=wrap;html=1;fontStyle=1;container=0;align=center;" vertex="1" parent="zwYwfQuwH_KNPQyuN6vb-273">
          <mxGeometry x="50" width="50" height="30" as="geometry" />
        </mxCell>
        <mxCell id="zwYwfQuwH_KNPQyuN6vb-277" value="Item" style="text;strokeColor=none;fillColor=none;spacingLeft=4;spacingRight=4;overflow=hidden;rotatable=0;points=[[0,0.5],[1,0.5]];portConstraint=eastwest;fontSize=13;whiteSpace=wrap;html=1;fontStyle=1;container=0;" vertex="1" parent="zwYwfQuwH_KNPQyuN6vb-273">
          <mxGeometry y="30" width="40" height="30" as="geometry" />
        </mxCell>
        <mxCell id="zwYwfQuwH_KNPQyuN6vb-278" value="C" style="text;strokeColor=none;fillColor=none;spacingLeft=4;spacingRight=4;overflow=hidden;rotatable=0;points=[[0,0.5],[1,0.5]];portConstraint=eastwest;fontSize=13;whiteSpace=wrap;html=1;align=center;fontStyle=1;container=0;" vertex="1" parent="zwYwfQuwH_KNPQyuN6vb-273">
          <mxGeometry x="40" y="30" width="70" height="30" as="geometry" />
        </mxCell>
        <mxCell id="zwYwfQuwH_KNPQyuN6vb-423" value="" style="group" vertex="1" connectable="0" parent="1">
          <mxGeometry x="392" y="302.86" width="42.39999999999998" height="75.72" as="geometry" />
        </mxCell>
        <mxCell id="zwYwfQuwH_KNPQyuN6vb-2" value="" style="sketch=0;aspect=fixed;strokeColor=#b85450;shadow=0;fillColor=#f8cecc;verticalAlign=top;labelPosition=center;verticalLabelPosition=bottom;shape=mxgraph.gcp2.phone_android;fontSize=16;container=0;" vertex="1" parent="zwYwfQuwH_KNPQyuN6vb-423">
          <mxGeometry width="42.4" height="75.72" as="geometry" />
        </mxCell>
        <mxCell id="zwYwfQuwH_KNPQyuN6vb-51" value="&lt;b&gt;&lt;font style=&quot;font-size: 15px;&quot;&gt;A&lt;/font&gt;&lt;/b&gt;" style="text;html=1;align=center;verticalAlign=middle;whiteSpace=wrap;rounded=0;container=0;" vertex="1" parent="zwYwfQuwH_KNPQyuN6vb-423">
          <mxGeometry x="11.800000000000011" y="22.860000000000014" width="18.8" height="30" as="geometry" />
        </mxCell>
        <mxCell id="zwYwfQuwH_KNPQyuN6vb-424" value="" style="group" vertex="1" connectable="0" parent="1">
          <mxGeometry x="505.8" y="419.28" width="42.39999999999998" height="75.72" as="geometry" />
        </mxCell>
        <mxCell id="zwYwfQuwH_KNPQyuN6vb-5" value="" style="sketch=0;aspect=fixed;strokeColor=none;shadow=0;fillColor=#3B8DF1;verticalAlign=top;labelPosition=center;verticalLabelPosition=bottom;shape=mxgraph.gcp2.phone_android;fontSize=16;container=0;" vertex="1" parent="zwYwfQuwH_KNPQyuN6vb-424">
          <mxGeometry width="42.4" height="75.72" as="geometry" />
        </mxCell>
        <mxCell id="zwYwfQuwH_KNPQyuN6vb-52" value="&lt;b&gt;&lt;font style=&quot;font-size: 15px;&quot;&gt;B&lt;/font&gt;&lt;/b&gt;" style="text;html=1;align=center;verticalAlign=middle;whiteSpace=wrap;rounded=0;container=0;" vertex="1" parent="zwYwfQuwH_KNPQyuN6vb-424">
          <mxGeometry x="11.799999999999955" y="22.860000000000014" width="18.8" height="30" as="geometry" />
        </mxCell>
        <mxCell id="zwYwfQuwH_KNPQyuN6vb-425" value="" style="group" vertex="1" connectable="0" parent="1">
          <mxGeometry x="280" y="410" width="42.39999999999998" height="75.72" as="geometry" />
        </mxCell>
        <mxCell id="zwYwfQuwH_KNPQyuN6vb-4" value="" style="sketch=0;aspect=fixed;strokeColor=#82b366;shadow=0;fillColor=#d5e8d4;verticalAlign=top;labelPosition=center;verticalLabelPosition=bottom;shape=mxgraph.gcp2.phone_android;fontSize=16;container=0;" vertex="1" parent="zwYwfQuwH_KNPQyuN6vb-425">
          <mxGeometry width="42.4" height="75.72" as="geometry" />
        </mxCell>
        <mxCell id="zwYwfQuwH_KNPQyuN6vb-53" value="&lt;b&gt;&lt;font style=&quot;font-size: 15px;&quot;&gt;C&lt;/font&gt;&lt;/b&gt;" style="text;html=1;align=center;verticalAlign=middle;whiteSpace=wrap;rounded=0;container=0;" vertex="1" parent="zwYwfQuwH_KNPQyuN6vb-425">
          <mxGeometry x="11.800000000000068" y="22.860000000000014" width="18.8" height="30" as="geometry" />
        </mxCell>
        <mxCell id="zwYwfQuwH_KNPQyuN6vb-426" value="" style="group" vertex="1" connectable="0" parent="1">
          <mxGeometry x="170" y="520" width="42.39999999999998" height="75.72" as="geometry" />
        </mxCell>
        <mxCell id="zwYwfQuwH_KNPQyuN6vb-421" value="" style="sketch=0;aspect=fixed;strokeColor=#9673a6;shadow=0;fillColor=#e1d5e7;verticalAlign=top;labelPosition=center;verticalLabelPosition=bottom;shape=mxgraph.gcp2.phone_android;fontSize=16;container=0;" vertex="1" parent="zwYwfQuwH_KNPQyuN6vb-426">
          <mxGeometry width="42.4" height="75.72" as="geometry" />
        </mxCell>
        <mxCell id="zwYwfQuwH_KNPQyuN6vb-422" value="&lt;b&gt;&lt;font style=&quot;font-size: 15px;&quot;&gt;D&lt;/font&gt;&lt;/b&gt;" style="text;html=1;align=center;verticalAlign=middle;whiteSpace=wrap;rounded=0;container=0;" vertex="1" parent="zwYwfQuwH_KNPQyuN6vb-426">
          <mxGeometry x="11.800000000000068" y="22.860000000000014" width="18.8" height="30" as="geometry" />
        </mxCell>
        <mxCell id="zwYwfQuwH_KNPQyuN6vb-427" value="" style="group" vertex="1" connectable="0" parent="1">
          <mxGeometry x="635.8" y="520" width="42.39999999999998" height="75.72" as="geometry" />
        </mxCell>
        <mxCell id="zwYwfQuwH_KNPQyuN6vb-428" value="" style="sketch=0;aspect=fixed;strokeColor=#d6b656;shadow=0;fillColor=#fff2cc;verticalAlign=top;labelPosition=center;verticalLabelPosition=bottom;shape=mxgraph.gcp2.phone_android;fontSize=16;container=0;" vertex="1" parent="zwYwfQuwH_KNPQyuN6vb-427">
          <mxGeometry width="42.4" height="75.72" as="geometry" />
        </mxCell>
        <mxCell id="zwYwfQuwH_KNPQyuN6vb-429" value="&lt;b&gt;&lt;font style=&quot;font-size: 15px;&quot;&gt;E&lt;/font&gt;&lt;/b&gt;" style="text;html=1;align=center;verticalAlign=middle;whiteSpace=wrap;rounded=0;container=0;" vertex="1" parent="zwYwfQuwH_KNPQyuN6vb-427">
          <mxGeometry x="11.800000000000068" y="22.860000000000014" width="18.8" height="30" as="geometry" />
        </mxCell>
        <mxCell id="zwYwfQuwH_KNPQyuN6vb-435" value="" style="html=1;shadow=0;dashed=0;align=center;verticalAlign=middle;shape=mxgraph.arrows2.arrow;dy=0.69;dx=24;notch=0;fontSize=16;rotation=45;strokeWidth=2;" vertex="1" parent="1">
          <mxGeometry x="450" y="342.86" width="80" height="35" as="geometry" />
        </mxCell>
        <mxCell id="zwYwfQuwH_KNPQyuN6vb-439" value="" style="html=1;shadow=0;dashed=0;align=center;verticalAlign=middle;shape=mxgraph.arrows2.arrow;dy=0.69;dx=24;notch=0;fontSize=16;rotation=-225;strokeWidth=2;" vertex="1" parent="1">
          <mxGeometry x="300" y="342.86" width="80" height="35" as="geometry" />
        </mxCell>
        <mxCell id="zwYwfQuwH_KNPQyuN6vb-446" value="&lt;font style=&quot;font-size: 25px;&quot;&gt;&lt;b style=&quot;&quot;&gt;1&lt;/b&gt;&lt;/font&gt;" style="ellipse;whiteSpace=wrap;html=1;aspect=fixed;fillColor=none;strokeWidth=3;" vertex="1" parent="1">
          <mxGeometry x="490" y="302.86000000000007" width="40" height="40" as="geometry" />
        </mxCell>
        <mxCell id="zwYwfQuwH_KNPQyuN6vb-447" value="&lt;font style=&quot;font-size: 25px;&quot;&gt;&lt;b style=&quot;&quot;&gt;1&lt;/b&gt;&lt;/font&gt;" style="ellipse;whiteSpace=wrap;html=1;aspect=fixed;fillColor=none;strokeWidth=3;" vertex="1" parent="1">
          <mxGeometry x="250" y="5.000000000000028" width="40" height="40" as="geometry" />
        </mxCell>
        <mxCell id="zwYwfQuwH_KNPQyuN6vb-448" value="&lt;font style=&quot;font-size: 25px;&quot;&gt;&lt;b style=&quot;&quot;&gt;1&lt;/b&gt;&lt;/font&gt;" style="ellipse;whiteSpace=wrap;html=1;aspect=fixed;fillColor=none;strokeWidth=3;" vertex="1" parent="1">
          <mxGeometry x="300" y="302.86000000000007" width="40" height="40" as="geometry" />
        </mxCell>
        <mxCell id="zwYwfQuwH_KNPQyuN6vb-450" value="" style="html=1;shadow=0;dashed=0;align=center;verticalAlign=middle;shape=mxgraph.arrows2.arrow;dy=0.69;dx=24;notch=0;fontSize=16;strokeWidth=2;rotation=45;" vertex="1" parent="1">
          <mxGeometry x="565.8" y="460" width="80" height="35" as="geometry" />
        </mxCell>
        <mxCell id="zwYwfQuwH_KNPQyuN6vb-456" value="" style="html=1;shadow=0;dashed=0;align=center;verticalAlign=middle;shape=mxgraph.arrows2.arrow;dy=0.69;dx=24;notch=0;fontSize=16;rotation=-225;strokeWidth=2;" vertex="1" parent="1">
          <mxGeometry x="200" y="460" width="80" height="35" as="geometry" />
        </mxCell>
        <mxCell id="zwYwfQuwH_KNPQyuN6vb-457" value="&lt;span style=&quot;font-size: 25px;&quot;&gt;&lt;b&gt;2&lt;/b&gt;&lt;/span&gt;" style="ellipse;whiteSpace=wrap;html=1;aspect=fixed;fillColor=none;strokeWidth=3;" vertex="1" parent="1">
          <mxGeometry x="200" y="419.28" width="40" height="40" as="geometry" />
        </mxCell>
        <mxCell id="zwYwfQuwH_KNPQyuN6vb-458" value="&lt;span style=&quot;font-size: 25px;&quot;&gt;&lt;b&gt;2&lt;/b&gt;&lt;/span&gt;" style="ellipse;whiteSpace=wrap;html=1;aspect=fixed;fillColor=none;strokeWidth=3;" vertex="1" parent="1">
          <mxGeometry x="605.8" y="419.28" width="40" height="40" as="geometry" />
        </mxCell>
        <mxCell id="zwYwfQuwH_KNPQyuN6vb-459" value="" style="html=1;shadow=0;dashed=0;align=center;verticalAlign=middle;shape=mxgraph.arrows2.arrow;dy=0.69;dx=24;notch=0;fontSize=16;strokeWidth=2;rotation=-138;" vertex="1" parent="1">
          <mxGeometry x="548.2" y="510" width="80" height="35" as="geometry" />
        </mxCell>
        <mxCell id="zwYwfQuwH_KNPQyuN6vb-460" value="&lt;font style=&quot;font-size: 25px;&quot;&gt;&lt;b style=&quot;&quot;&gt;3&lt;/b&gt;&lt;/font&gt;" style="ellipse;whiteSpace=wrap;html=1;aspect=fixed;fillColor=none;strokeWidth=3;" vertex="1" parent="1">
          <mxGeometry x="548.1999999999999" y="537.86" width="40" height="40" as="geometry" />
        </mxCell>
        <mxCell id="zwYwfQuwH_KNPQyuN6vb-462" value="" style="html=1;shadow=0;dashed=0;align=center;verticalAlign=middle;shape=mxgraph.arrows2.arrow;dy=0.69;dx=24;notch=0;fontSize=16;strokeWidth=2;rotation=-138;" vertex="1" parent="1">
          <mxGeometry x="425.80000000000007" y="400" width="80" height="35" as="geometry" />
        </mxCell>
        <mxCell id="zwYwfQuwH_KNPQyuN6vb-463" value="&lt;font style=&quot;font-size: 25px;&quot;&gt;&lt;b style=&quot;&quot;&gt;4&lt;/b&gt;&lt;/font&gt;" style="ellipse;whiteSpace=wrap;html=1;aspect=fixed;fillColor=none;strokeWidth=3;" vertex="1" parent="1">
          <mxGeometry x="425.8" y="427.86" width="40" height="40" as="geometry" />
        </mxCell>
      </root>
    </mxGraphModel>
  </diagram>
</mxfile>
